<svg width="14" height="10" viewBox="0 0 14 10" fill="none" xmlns="http://www.w3.org/2000/svg">
  <path fill-rule="evenodd" clip-rule="evenodd" d="M13.9999 4.99991C13.9999 4.72377 13.7761 4.49991 13.4999 4.49991H1.70692L4.85392 1.35391C4.98039 1.22744 5.02978 1.0431 4.98349 0.870338C4.9372 0.697574 4.80225 0.56263 4.62949 0.516338C4.45673 0.470046 4.27239 0.519439 4.14592 0.645911L0.145917 4.64591C0.0518755 4.73972 -0.000976562 4.86708 -0.000976562 4.99991C-0.000976563 5.13274 0.0518755 5.26011 0.145917 5.35391L4.14592 9.35391C4.27239 9.48038 4.45673 9.52978 4.62949 9.48348C4.80225 9.43719 4.9372 9.30225 4.98349 9.12948C5.02978 8.95672 4.98039 8.77238 4.85392 8.64591L1.70692 5.49991H13.4999C13.7761 5.49991 13.9999 5.27605 13.9999 4.99991Z" fill="white" />
</svg>