<svg width="14" height="10" viewBox="0 0 14 10" fill="none" xmlns="http://www.w3.org/2000/svg">
  <path fill-rule="evenodd" clip-rule="evenodd" d="M0 4.9999C0 4.72376 0.223858 4.4999 0.5 4.4999H12.293L9.146 1.3539C8.95049 1.15839 8.95049 0.841408 9.146 0.645899C9.34151 0.45039 9.65849 0.45039 9.854 0.645899L13.854 4.6459C13.948 4.7397 14.0009 4.86707 14.0009 4.9999C14.0009 5.13273 13.948 5.26009 13.854 5.3539L9.854 9.3539C9.65849 9.54941 9.34151 9.54941 9.146 9.3539C8.95049 9.15839 8.95049 8.84141 9.146 8.6459L12.293 5.4999H0.5C0.223858 5.4999 0 5.27604 0 4.9999Z" fill="white" />
</svg>